<?xml version="1.0" encoding="UTF-8"?>
<svg id="Layer_1" data-name="Layer 1" xmlns="http://www.w3.org/2000/svg" viewBox="0 0 2218.37 2493.26">
  <defs>
    <style>
      .cls-1 {
        fill: #fff;
      }

      .cls-2 {
        fill: #5c8dbc;
      }

      .cls-3 {
        fill: #1a4674;
      }

      .cls-4 {
        fill: #1b598e;
      }
    </style>
  </defs>
  <path class="cls-2" d="M2218.26,733.02c-.02-41.92-8.98-78.97-27.12-110.76-17.81-31.26-44.48-57.47-80.26-78.19-295.33-170.29-590.94-340.05-886.17-510.51-79.59-45.95-156.76-44.28-235.77,2.33-117.55,69.32-706.08,406.5-881.45,508.08C35.27,585.79.13,649.77.11,732.94c-.11,342.46,0,684.91-.11,1027.37.02,41,8.6,77.33,25.93,108.64,17.82,32.21,44.87,59.13,81.47,80.32,175.38,101.58,763.99,438.73,881.51,508.07,79.04,46.64,156.21,48.3,235.83,2.33,295.24-170.47,590.87-340.23,886.24-510.51,36.6-21.18,63.65-48.12,81.47-80.3,17.31-31.32,25.91-67.64,25.93-108.65,0,0,0-684.73-.11-1027.2"/>
  <path class="cls-3" d="M1112.58,1243.29L25.93,1868.96c17.82,32.21,44.87,59.13,81.47,80.32,175.38,101.58,763.99,438.73,881.51,508.07,79.04,46.64,156.21,48.3,235.83,2.33,295.24-170.47,590.87-340.23,886.24-510.51,36.6-21.18,63.65-48.12,81.47-80.3l-1079.87-625.58"/>
  <path class="cls-3" d="M790.73,1428.62c63.23,110.39,182.1,184.84,318.46,184.84s256.75-75.4,319.66-186.97l-316.26-183.2-321.85,185.33"/>
  <path class="cls-4" d="M2218.26,733.02c-.02-41.92-8.98-78.97-27.12-110.76l-1078.56,621.03,1079.87,625.58c17.31-31.32,25.91-67.64,25.93-108.65,0,0,0-684.73-.11-1027.2"/>
  <path class="cls-1" d="M2158.88,1288.01h-84.38v84.4h-84.4v-84.4h-84.38v-84.38h84.38v-84.38h84.4v84.38h84.38v84.38M1850.97,1288.01h-84.38v84.4h-84.38v-84.4h-84.38v-84.38h84.38v-84.38h84.38v84.38h84.38v84.38"/>
  <path class="cls-1" d="M1428.84,1426.49c-62.91,111.57-182.46,186.97-319.66,186.97s-255.23-74.45-318.46-184.84c-31.76-55.39-48.45-118.14-48.38-182,0-202.59,164.25-366.83,366.84-366.83,135.48,0,253.72,73.53,317.27,182.79l320.64-184.63c-127.44-220-365.38-368-637.9-368-406.87,0-736.69,329.83-736.69,736.68,0,133.48,35.51,258.65,97.57,366.61,127.12,221.16,365.74,370.08,639.12,370.08s512.87-149.52,639.81-371.33l-320.16-185.49"/>
</svg>