<?xml version="1.0" encoding="UTF-8"?>
<svg id="Layer_1" data-name="Layer 1" xmlns="http://www.w3.org/2000/svg" xmlns:xlink="http://www.w3.org/1999/xlink" viewBox="0 0 2493.73 2480.76">
  <defs>
    <style>
      .cls-1 {
        fill: url(#linear-gradient-2);
      }

      .cls-2 {
        fill: url(#linear-gradient);
      }
    </style>
    <linearGradient id="linear-gradient" x1="288.55" y1="1784.55" x2="289.22" y2="1783.89" gradientTransform="translate(-533379.21 3307706.09) scale(1849.27 -1853.39)" gradientUnits="userSpaceOnUse">
      <stop offset="0" stop-color="#387eb8"/>
      <stop offset="1" stop-color="#366994"/>
    </linearGradient>
    <linearGradient id="linear-gradient-2" x1="288.62" y1="1784.47" x2="289.33" y2="1783.79" gradientTransform="translate(-532734.66 3308333.73) scale(1849.27 -1853.39)" gradientUnits="userSpaceOnUse">
      <stop offset="0" stop-color="#ffe052"/>
      <stop offset="1" stop-color="#ffc331"/>
    </linearGradient>
  </defs>
  <path class="cls-2" d="M1237.88,0c-633.07,0-593.54,274.53-593.54,274.53l.7,284.43h604.12v85.39H405.1S0,598.41,0,1237.17s353.58,616.12,353.58,616.12h211.02v-296.42s-11.38-353.58,347.94-353.58h599.18s336.64,5.44,336.64-325.35V331S1899.48,0,1237.88,0ZM904.77,191.27c59.97-.05,108.63,48.52,108.68,108.49,0,.07,0,.13,0,.2.05,59.97-48.52,108.63-108.49,108.68-.07,0-.13,0-.2,0-59.97.05-108.63-48.52-108.68-108.49,0-.07,0-.13,0-.2-.05-59.97,48.52-108.63,108.49-108.68.07,0,.13,0,.2,0Z"/>
  <path class="cls-1" d="M1255.86,2480.76c633.07,0,593.54-274.53,593.54-274.53l-.7-284.42h-604.13v-85.39h844.07s405.1,45.94,405.1-592.83-353.58-616.11-353.58-616.11h-211.02v296.41s11.38,353.58-347.94,353.58h-599.18s-336.64-5.44-336.64,325.36v546.95s-51.12,330.99,610.47,330.99h0ZM1588.97,2289.51c-59.97.05-108.63-48.52-108.68-108.49v-.2c-.06-59.97,48.51-108.63,108.48-108.69h.21c59.97-.05,108.63,48.52,108.68,108.49v.2c.05,59.97-48.52,108.63-108.49,108.68h-.2Z"/>
</svg>